<svg width="24" height="24" viewBox="0 0 24 24" fill="none" xmlns="http://www.w3.org/2000/svg">
<path d="M6.92852 13.179L12.5918 18.9956C12.8229 19.233 12.9339 19.51 12.9246 19.8265C12.9154 20.1431 12.7948 20.4201 12.5629 20.6575C12.3317 20.8751 12.0621 20.9891 11.7539 20.9994C11.4457 21.0096 11.176 20.8957 10.9448 20.6575L3.31675 12.8229C3.20117 12.7042 3.11912 12.5756 3.07057 12.4371C3.02203 12.2986 2.99853 12.1502 3.00007 11.992C3.00161 11.8337 3.02588 11.6853 3.07288 11.5468C3.11989 11.4083 3.20156 11.2797 3.31791 11.161L10.946 3.32644C11.1579 3.10881 11.4229 3 11.7411 3C12.0594 3 12.3337 3.10881 12.564 3.32644C12.7952 3.56385 12.9108 3.84598 12.9108 4.17281C12.9108 4.49965 12.7952 4.78138 12.564 5.018L6.92852 10.8049H19.8442C20.1717 10.8049 20.4464 10.9189 20.6683 11.1468C20.8902 11.3747 21.0008 11.6564 21 11.992C20.9992 12.3275 20.8883 12.6096 20.6671 12.8383C20.446 13.067 20.1717 13.1806 19.8442 13.179H6.92852Z" fill="black"/>
</svg>
