<svg width="28" height="28" viewBox="0 0 28 28" fill="none" xmlns="http://www.w3.org/2000/svg">
<path fill-rule="evenodd" clip-rule="evenodd" d="M6.99992 2.33301C4.42259 2.33301 2.33325 4.42235 2.33325 6.99967V20.9997C2.33325 23.577 4.42259 25.6663 6.99992 25.6663H20.9999C23.5772 25.6663 25.6666 23.577 25.6666 20.9997V6.99967C25.6666 4.42235 23.5772 2.33301 20.9999 2.33301H6.99992ZM20.4791 9.86974C20.4577 9.65597 20.3522 9.45946 20.1859 9.32343C20.0196 9.18744 19.8061 9.12308 19.5923 9.1445C19.3785 9.16593 19.182 9.27138 19.046 9.43767L12.3214 17.657L8.90328 14.2388C8.82854 14.1614 8.73914 14.0997 8.64029 14.0573C8.54145 14.0148 8.43514 13.9924 8.32756 13.9915C8.21998 13.9906 8.1133 14.0111 8.01373 14.0518C7.91416 14.0926 7.8237 14.1527 7.74763 14.2288C7.67156 14.3049 7.6114 14.3953 7.57067 14.4949C7.52993 14.5944 7.50943 14.7011 7.51037 14.8087C7.5113 14.9163 7.53365 15.0226 7.57611 15.1214C7.61857 15.2203 7.68029 15.3097 7.75768 15.3844L11.8086 19.4354C11.8886 19.5154 11.9846 19.5777 12.0902 19.6184C12.1958 19.6591 12.3088 19.6772 12.4218 19.6716C12.5349 19.6659 12.6455 19.6366 12.7465 19.5856C12.8476 19.5346 12.9368 19.463 13.0085 19.3754L20.3001 10.4634C20.4361 10.297 20.5005 10.0835 20.4791 9.86974Z" fill="#7A51EC"/>
</svg>
