<svg width="28" height="28" viewBox="0 0 28 28" fill="none" xmlns="http://www.w3.org/2000/svg">
<path fill-rule="evenodd" clip-rule="evenodd" d="M20.9999 3.49967H6.99992C5.06692 3.49967 3.49992 5.06668 3.49992 6.99967V20.9997C3.49992 22.9327 5.06692 24.4997 6.99992 24.4997H20.9999C22.9329 24.4997 24.4999 22.9327 24.4999 20.9997V6.99967C24.4999 5.06668 22.9329 3.49967 20.9999 3.49967ZM6.99992 2.33301C4.42259 2.33301 2.33325 4.42235 2.33325 6.99967V20.9997C2.33325 23.577 4.42259 25.6663 6.99992 25.6663H20.9999C23.5772 25.6663 25.6666 23.577 25.6666 20.9997V6.99967C25.6666 4.42235 23.5772 2.33301 20.9999 2.33301H6.99992Z" fill="#F6F5F8"/>
<path d="M20.9999 2.99967H6.99992C4.79078 2.99967 2.99992 4.79054 2.99992 6.99967V20.9997C2.99992 23.2088 4.79078 24.9997 6.99992 24.9997H20.9999C23.2091 24.9997 24.9999 23.2088 24.9999 20.9997V6.99967C24.9999 4.79054 23.2091 2.99967 20.9999 2.99967ZM2.83325 6.99967C2.83325 4.69849 4.69873 2.83301 6.99992 2.83301H20.9999C23.3011 2.83301 25.1666 4.69849 25.1666 6.99967V20.9997C25.1666 23.3009 23.3011 25.1663 20.9999 25.1663H6.99992C4.69873 25.1663 2.83325 23.3009 2.83325 20.9997V6.99967Z" stroke="#D1D1D1"/>
</svg>
