<svg width="24" height="24" viewBox="0 0 24 24" fill="none" xmlns="http://www.w3.org/2000/svg">
<g clip-path="url(#clip0_208_362)">
<path fill-rule="evenodd" clip-rule="evenodd" d="M12.7563 15.6946C12.5592 15.8901 12.2917 16 12.0129 16C11.7341 16 11.4667 15.8901 11.2695 15.6946L5.32102 9.79348C5.22059 9.69725 5.14048 9.58214 5.08537 9.45487C5.03026 9.32761 5.00125 9.19072 5.00004 9.05222C4.99883 8.91371 5.02543 8.77635 5.0783 8.64815C5.13118 8.51995 5.20925 8.40348 5.30798 8.30553C5.40672 8.20759 5.52412 8.13013 5.65335 8.07768C5.78258 8.02523 5.92104 7.99884 6.06066 8.00004C6.20028 8.00124 6.33826 8.03002 6.46655 8.08469C6.59484 8.13936 6.71087 8.21883 6.80787 8.31846L12.0129 13.4821L17.218 8.31846C17.4163 8.12844 17.6819 8.0233 17.9576 8.02568C18.2333 8.02805 18.4971 8.13776 18.692 8.33117C18.887 8.52458 18.9976 8.78621 19 9.05972C19.0024 9.33323 18.8964 9.59674 18.7048 9.79348L12.7563 15.6946Z" fill="black"/>
</g>
<defs>
<clipPath id="clip0_208_362">
<rect width="24" height="24" fill="white"/>
</clipPath>
</defs>
</svg>
