<svg width="28" height="28" viewBox="0 0 28 28" fill="none" xmlns="http://www.w3.org/2000/svg">
<path d="M14 28C21.732 28 28 21.732 28 14C28 6.26801 21.732 0 14 0C6.26801 0 0 6.26801 0 14C0 21.732 6.26801 28 14 28Z" fill="#F0F0F0"/>
<path d="M2.8942 5.47665C1.79448 6.90744 0.965258 8.55654 0.482422 10.348H7.76559L2.8942 5.47665ZM27.5178 10.348C27.035 8.55659 26.2057 6.90749 25.1061 5.4767L20.2348 10.348H27.5178ZM0.482422 17.6524C0.965312 19.4438 1.79454 21.0929 2.8942 22.5237L7.76543 17.6524H0.482422ZM22.5236 2.89425C21.0928 1.79454 19.4438 0.965312 17.6523 0.482422V7.76554L22.5236 2.89425ZM5.47665 25.106C6.90744 26.2057 8.55654 27.035 10.348 27.5178V20.2348L5.47665 25.106ZM10.3479 0.482422C8.55648 0.965312 6.90738 1.79454 5.47665 2.8942L10.3479 7.76548V0.482422ZM17.6523 27.5178C19.4438 27.035 21.0929 26.2057 22.5236 25.1061L17.6523 20.2348V27.5178ZM20.2348 17.6524L25.1061 22.5237C26.2057 21.093 27.035 19.4438 27.5178 17.6524H20.2348Z" fill="#0052B4"/>
<path d="M27.8815 12.1739H15.8261V0.118508C15.2206 0.0396159 14.6106 3.04175e-05 14 0C13.381 0 12.7717 0.0406875 12.1739 0.118508V12.1739H0.118508C0.0396159 12.7794 3.04175e-05 13.3894 0 14C0 14.619 0.0406875 15.2283 0.118508 15.8261H12.1739V27.8815C13.3861 28.0395 14.6138 28.0395 15.8261 27.8815V15.8261H27.8815C27.9604 15.2206 28 14.6106 28 14C28 13.3811 27.9593 12.7717 27.8815 12.1739Z" fill="#D80027"/>
<path d="M17.6519 17.652L23.8992 23.8992C24.1864 23.6117 24.461 23.3118 24.7222 23.0004L19.3736 17.6519H17.6519V17.652ZM10.3476 17.652H10.3475L4.10023 23.8992C4.38777 24.1864 4.68765 24.4609 4.99902 24.7221L10.3476 19.3735V17.652ZM10.3476 10.3476V10.3475L4.10028 4.10017C3.81309 4.38771 3.53851 4.68759 3.27734 4.99896L8.62594 10.3476H10.3476V10.3476ZM17.6519 10.3476L23.8993 4.10023C23.6118 3.81303 23.3119 3.53848 23.0005 3.27734L17.6519 8.62594V10.3476Z" fill="#D80027"/>
</svg>
