<svg width="64" height="64" viewBox="0 0 64 64" fill="none" xmlns="http://www.w3.org/2000/svg">
<rect width="64" height="64" rx="32" fill="black"/>
<path d="M27.3334 22.467H27.3334C26.971 22.467 26.6233 22.611 26.367 22.8673C26.1107 23.1236 25.9667 23.4712 25.9667 23.8337V40.167H25.9664L25.9671 40.1789L25.9753 40.3154L25.9749 40.3155L25.9763 40.3271C26.0175 40.673 26.1891 40.9901 26.4562 41.2137C26.7234 41.4373 27.0658 41.5504 27.4135 41.53C27.7612 41.5096 28.0881 41.3572 28.3272 41.1039C28.5663 40.8506 28.6997 40.5156 28.7001 40.1672V40.167V23.8337H28.7004L28.6997 23.8217L28.6916 23.6852L28.6919 23.6852L28.6905 23.6738C28.6514 23.3413 28.4916 23.0348 28.2414 22.8124C27.9913 22.5899 27.6682 22.467 27.3334 22.467ZM36.6668 22.467H36.6667C36.3043 22.467 35.9567 22.611 35.7004 22.8673C35.4441 23.1236 35.3001 23.4712 35.3001 23.8337V40.167H35.2997L35.3004 40.1789L35.3086 40.3154L35.3083 40.3155L35.3096 40.3271C35.3508 40.673 35.5225 40.9901 35.7896 41.2137C36.0567 41.4373 36.3991 41.5504 36.7468 41.53C37.0946 41.5096 37.4214 41.3572 37.6605 41.1039C37.8996 40.8506 38.033 40.5156 38.0334 40.1672V40.167V23.8337H38.0338L38.0331 23.8217L38.0249 23.6852L38.0252 23.6852L38.0239 23.6738C37.9847 23.3413 37.8249 23.0348 37.5747 22.8124C37.3246 22.5899 37.0015 22.467 36.6668 22.467Z" fill="white" stroke="white" stroke-width="0.4"/>
</svg>
