<svg width="28" height="28" viewBox="0 0 28 28" fill="none" xmlns="http://www.w3.org/2000/svg">
<path fill-rule="evenodd" clip-rule="evenodd" d="M0 14C0 6.26817 6.26817 0 14 0C21.7318 0 28 6.26817 28 14C28 21.7318 21.7318 28 14 28C6.26817 28 0 21.7318 0 14ZM9.82455 24.8972C7.31604 23.9354 5.22414 22.1323 3.8942 19.8333H8.4994C8.66963 21.1357 8.91177 22.3374 9.24061 23.3897C9.40288 23.9089 9.59588 24.418 9.82455 24.8972ZM10.8541 19.8333C11.0056 20.9007 11.2084 21.8637 11.4677 22.6937C12.171 24.9443 13.0845 25.6667 14 25.6667C14.9155 25.6667 15.829 24.9443 16.5323 22.6937C16.7916 21.8637 16.9944 20.9007 17.1459 19.8333H10.8541ZM17.3867 17.5H10.6133C10.5364 16.3976 10.5 15.2235 10.5 14C10.5 12.7765 10.5364 11.6024 10.6133 10.5H17.3867C17.4636 11.6024 17.5 12.7765 17.5 14C17.5 15.2235 17.4636 16.3976 17.3867 17.5ZM19.5006 19.8333C19.3304 21.1357 19.0882 22.3374 18.7594 23.3897C18.5971 23.9089 18.4041 24.418 18.1754 24.8972C20.684 23.9354 22.7759 22.1323 24.1058 19.8333H19.5006ZM25.1325 17.5H19.7255C19.8 16.3719 19.8333 15.1967 19.8333 14C19.8333 12.8033 19.8 11.6281 19.7255 10.5H25.1325C25.4796 11.6049 25.6667 12.7806 25.6667 14C25.6667 15.2194 25.4796 16.3951 25.1325 17.5ZM24.1058 8.16667C22.7759 5.86768 20.684 4.0646 18.1754 3.10279C18.4041 3.582 18.5971 4.09105 18.7594 4.61035C19.0882 5.66262 19.3304 6.86433 19.5006 8.16667H24.1058ZM17.1459 8.16667C16.9944 7.0993 16.7916 6.13627 16.5323 5.30632C15.829 3.0557 14.9155 2.33333 14 2.33333C13.0845 2.33333 12.171 3.0557 11.4677 5.30632C11.2084 6.13627 11.0056 7.0993 10.8541 8.16667H17.1459ZM8.4994 8.16667C8.66963 6.86433 8.91177 5.66262 9.24061 4.61035C9.40289 4.09105 9.59588 3.582 9.82455 3.10279C7.31604 4.0646 5.22413 5.86768 3.8942 8.16667H8.4994ZM2.86747 10.5C2.52042 11.6049 2.33333 12.7806 2.33333 14C2.33333 15.2194 2.52042 16.3951 2.86747 17.5H8.27451C8.20005 16.3719 8.16667 15.1967 8.16667 14C8.16667 12.8033 8.20005 11.6281 8.27451 10.5H2.86747Z" fill="#6B6B6B"/>
</svg>
