<svg width="24" height="24" viewBox="0 0 24 24" fill="none" xmlns="http://www.w3.org/2000/svg">
<path d="M8.9558 8.78219L7.77742 7.80986C7.31281 7.42473 6.76025 7.11947 6.15171 6.91173C5.54317 6.704 4.89075 6.59792 4.23219 6.59963H2.00574C1.739 6.59963 1.48319 6.68706 1.29457 6.84269C1.10596 6.99832 1 7.2094 1 7.4295C1 7.64959 1.10596 7.86067 1.29457 8.01631C1.48319 8.17194 1.739 8.25937 2.00574 8.25937H4.23009C4.62458 8.25848 5.01535 8.32221 5.37977 8.44686C5.74419 8.57151 6.075 8.75459 6.35304 8.9855L7.53101 9.95576C7.71962 10.1117 7.97555 10.1994 8.24252 10.1995C8.50948 10.1997 8.76561 10.1124 8.95455 9.9568C9.14349 9.80117 9.24976 9.58999 9.25 9.36971C9.25024 9.14942 9.14441 8.93809 8.9558 8.78219Z" fill="black"/>
<path d="M7.94604 15.9382L15.3613 8.74181C15.6464 8.46338 15.9856 8.24261 16.3592 8.0923C16.7329 7.94199 17.1335 7.86511 17.538 7.86613H19.4891L18.2972 9.02286C18.2011 9.11583 18.1248 9.22631 18.0727 9.34796C18.0207 9.4696 17.9939 9.60002 17.9939 9.73174C17.9939 9.86345 18.0207 9.99387 18.0727 10.1155C18.1248 10.2372 18.2011 10.3476 18.2972 10.4406C18.4906 10.6283 18.7529 10.7337 19.0264 10.7337C19.2998 10.7337 19.5621 10.6283 19.7555 10.4406L22.6893 7.59509C22.7878 7.49956 22.8659 7.38612 22.9192 7.26127C22.9726 7.13642 23 7.00259 23 6.86744C23 6.7323 22.9726 6.59847 22.9192 6.47362C22.8659 6.34877 22.7878 6.23533 22.6893 6.1398L19.7555 3.29302C19.5645 3.10773 19.3063 3.00254 19.0363 3.00005C18.7662 2.99755 18.506 3.09795 18.3114 3.27967C17.8946 3.66872 17.9045 4.32757 18.3135 4.72454L19.4878 5.86417H17.538C16.8628 5.86215 16.1938 5.9901 15.5699 6.24061C14.9459 6.49112 14.3794 6.85923 13.903 7.32363L6.48774 14.5225C6.20266 14.801 5.86347 15.0218 5.48983 15.1721C5.11618 15.3224 4.71551 15.3993 4.31103 15.3982H2.03121C1.75771 15.3982 1.49542 15.5036 1.30203 15.6913C1.10864 15.879 1 16.1335 1 16.399C1 16.6644 1.10864 16.9189 1.30203 17.1066C1.49542 17.2943 1.75771 17.3997 2.03121 17.3997H4.31103C4.9864 17.4014 5.65541 17.2731 6.27935 17.0222C6.90329 16.7714 7.46978 16.4029 7.94604 15.9382Z" fill="black"/>
<path d="M19.6754 20.6945L22.6817 17.7132C22.7826 17.6132 22.8626 17.4944 22.9173 17.3636C22.9719 17.2329 23 17.0927 23 16.9512C23 16.8096 22.9719 16.6695 22.9173 16.5387C22.8626 16.4079 22.7826 16.2892 22.6817 16.1891L19.6754 13.2073C19.4797 13.0132 19.2151 12.9031 18.9384 12.9004C18.6617 12.8978 18.395 13.003 18.1956 13.1934C17.7685 13.6009 17.7786 14.2911 18.1978 14.707L19.4011 15.9008H17.4106C16.9961 15.9019 16.5856 15.8213 16.2027 15.6639C15.8198 15.5064 15.4722 15.2752 15.1801 14.9835L13.8099 13.6241C13.7121 13.5254 13.5956 13.447 13.467 13.3932C13.3385 13.3395 13.2005 13.3115 13.061 13.311C12.9215 13.3104 12.7833 13.3372 12.6543 13.3899C12.5253 13.4426 12.4081 13.5202 12.3095 13.618C12.2109 13.7159 12.1327 13.8321 12.0796 13.9601C12.0265 14.0881 11.9994 14.2252 12 14.3636C12.0006 14.502 12.0288 14.6389 12.0829 14.7664C12.1371 14.894 12.2162 15.0096 12.3156 15.1067L13.6858 16.4665C14.174 16.9529 14.7546 17.3384 15.3939 17.6009C16.0333 17.8633 16.7187 17.9974 17.4106 17.9954H19.402L18.1811 19.2093C17.9829 19.4059 17.8716 19.6726 17.8716 19.9506C17.8716 20.2286 17.9829 20.4953 18.1811 20.6919C18.3789 20.8888 18.6474 20.9998 18.9277 21.0003C19.2079 21.0007 19.4769 20.8908 19.6754 20.6945Z" fill="black"/>
</svg>
